{
    "asset" : {
        "generator" : "Khronos glTF Blender I/O v1.4.40",
        "version" : "2.0"
    },
    "scene" : 0,
    "scenes" : [
        {
            "name" : "Scene",
            "nodes" : [
                5
            ]
        }
    ],
    "nodes" : [
        {
            "mesh" : 0,
            "name" : "chassis",
            "scale" : [
                2.2780988216400146,
                -0.33001264929771423,
                1
            ],
            "translation" : [
                -0.0008361414074897766,
                0.5718772411346436,
                -0.004741966724395752
            ]
        },
        {
            "mesh" : 1,
            "name" : "wheel-BL",
            "rotation" : [
                0.7071070671081543,
                0,
                0,
                0.7071065902709961
            ],
            "scale" : [
                0.16317205131053925,
                0.07011555135250092,
                0.16317205131053925
            ],
            "translation" : [
                1.4235352277755737,
                0.23458349704742432,
                0.9818189144134521
            ]
        },
        {
            "mesh" : 2,
            "name" : "wheel-BR",
            "rotation" : [
                0.7071070671081543,
                0,
                0,
                0.7071065902709961
            ],
            "scale" : [
                0.16317205131053925,
                0.07011555135250092,
                0.16317205131053925
            ],
            "translation" : [
                1.4334288835525513,
                0.2471732199192047,
                -0.93011474609375
            ]
        },
        {
            "mesh" : 3,
            "name" : "wheel-FL",
            "rotation" : [
                0.7071070671081543,
                0,
                0,
                0.7071065902709961
            ],
            "scale" : [
                0.16317205131053925,
                0.07011555135250092,
                0.16317205131053925
            ],
            "translation" : [
                -1.3575003147125244,
                0.23458349704742432,
                0.9324312806129456
            ]
        },
        {
            "mesh" : 4,
            "name" : "wheel-FR",
            "rotation" : [
                0.7071070671081543,
                0,
                0,
                0.7071065902709961
            ],
            "scale" : [
                0.16317205131053925,
                0.07011555135250092,
                0.16317205131053925
            ],
            "translation" : [
                -1.3612805604934692,
                0.23458349704742432,
                -0.93011474609375
            ]
        },
        {
            "children" : [
                0,
                1,
                2,
                3,
                4
            ],
            "name" : "car"
        }
    ],
    "materials" : [
        {
            "doubleSided" : true,
            "name" : "Material",
            "pbrMetallicRoughness" : {
                "baseColorFactor" : [
                    0.8148468732833862,
                    0.05448020249605179,
                    0.03560134768486023,
                    1
                ],
                "metallicFactor" : 0,
                "roughnessFactor" : 0.5
            }
        },
        {
            "doubleSided" : true,
            "name" : "\u041e\u041a\u041d\u041e",
            "pbrMetallicRoughness" : {
                "baseColorFactor" : [
                    0.05448022484779358,
                    0.23455063998699188,
                    0.9046613574028015,
                    1
                ],
                "metallicFactor" : 0,
                "roughnessFactor" : 0.5
            }
        },
        {
            "doubleSided" : true,
            "name" : "Material.007",
            "pbrMetallicRoughness" : {
                "baseColorFactor" : [
                    0.9559736847877502,
                    0.4969329237937927,
                    0.00151766836643219,
                    1
                ],
                "metallicFactor" : 0,
                "roughnessFactor" : 0.5
            }
        },
        {
            "doubleSided" : true,
            "name" : "Material.008",
            "pbrMetallicRoughness" : {
                "baseColorFactor" : [
                    0.800000011920929,
                    0.800000011920929,
                    0.800000011920929,
                    1
                ],
                "metallicFactor" : 0,
                "roughnessFactor" : 0.5
            }
        },
        {
            "doubleSided" : true,
            "name" : "Material.009",
            "pbrMetallicRoughness" : {
                "baseColorFactor" : [
                    0,
                    0,
                    0,
                    1
                ],
                "metallicFactor" : 0,
                "roughnessFactor" : 0.5
            }
        },
        {
            "doubleSided" : true,
            "name" : "Material.003",
            "pbrMetallicRoughness" : {
                "baseColorFactor" : [
                    0.0578022301197052,
                    0.0578022301197052,
                    0.0578022301197052,
                    1
                ],
                "metallicFactor" : 0,
                "roughnessFactor" : 0.5
            }
        },
        {
            "doubleSided" : true,
            "name" : "Material.004",
            "pbrMetallicRoughness" : {
                "baseColorFactor" : [
                    0.800000011920929,
                    0.800000011920929,
                    0.800000011920929,
                    1
                ],
                "metallicFactor" : 0,
                "roughnessFactor" : 0.5
            }
        },
        {
            "doubleSided" : true,
            "name" : "Material.010",
            "pbrMetallicRoughness" : {
                "baseColorFactor" : [
                    0.0188484825193882,
                    0.0188484825193882,
                    0.0188484825193882,
                    1
                ],
                "metallicFactor" : 0,
                "roughnessFactor" : 0.5
            }
        },
        {
            "doubleSided" : true,
            "name" : "\u0414\u0418\u0421\u041a.001",
            "pbrMetallicRoughness" : {
                "baseColorFactor" : [
                    0.800000011920929,
                    0.800000011920929,
                    0.800000011920929,
                    1
                ],
                "metallicFactor" : 0,
                "roughnessFactor" : 0.5
            }
        },
        {
            "doubleSided" : true,
            "name" : "Material.005",
            "pbrMetallicRoughness" : {
                "baseColorFactor" : [
                    0.06071927025914192,
                    0.06071927025914192,
                    0.06071927025914192,
                    1
                ],
                "metallicFactor" : 0,
                "roughnessFactor" : 0.5
            }
        },
        {
            "doubleSided" : true,
            "name" : "Material.006",
            "pbrMetallicRoughness" : {
                "baseColorFactor" : [
                    0.800000011920929,
                    0.800000011920929,
                    0.800000011920929,
                    1
                ],
                "metallicFactor" : 0,
                "roughnessFactor" : 0.5
            }
        },
        {
            "doubleSided" : true,
            "name" : "Material.001",
            "pbrMetallicRoughness" : {
                "baseColorFactor" : [
                    0.0188484825193882,
                    0.0188484825193882,
                    0.0188484825193882,
                    1
                ],
                "metallicFactor" : 0,
                "roughnessFactor" : 0.5
            }
        },
        {
            "doubleSided" : true,
            "name" : "\u0414\u0418\u0421\u041a",
            "pbrMetallicRoughness" : {
                "baseColorFactor" : [
                    0.800000011920929,
                    0.800000011920929,
                    0.800000011920929,
                    1
                ],
                "metallicFactor" : 0,
                "roughnessFactor" : 0.5
            }
        }
    ],
    "meshes" : [
        {
            "name" : "Cube",
            "primitives" : [
                {
                    "attributes" : {
                        "POSITION" : 0,
                        "NORMAL" : 1
                    },
                    "indices" : 2,
                    "material" : 0
                },
                {
                    "attributes" : {
                        "POSITION" : 3,
                        "NORMAL" : 4
                    },
                    "indices" : 5,
                    "material" : 1
                },
                {
                    "attributes" : {
                        "POSITION" : 6,
                        "NORMAL" : 7
                    },
                    "indices" : 8,
                    "material" : 2
                },
                {
                    "attributes" : {
                        "POSITION" : 9,
                        "NORMAL" : 10
                    },
                    "indices" : 11,
                    "material" : 3
                },
                {
                    "attributes" : {
                        "POSITION" : 12,
                        "NORMAL" : 13
                    },
                    "indices" : 14,
                    "material" : 4
                }
            ]
        },
        {
            "name" : "Cylinder.002",
            "primitives" : [
                {
                    "attributes" : {
                        "POSITION" : 15,
                        "NORMAL" : 16
                    },
                    "indices" : 17,
                    "material" : 5
                },
                {
                    "attributes" : {
                        "POSITION" : 18,
                        "NORMAL" : 19
                    },
                    "indices" : 20,
                    "material" : 6
                }
            ]
        },
        {
            "name" : "Cylinder.005",
            "primitives" : [
                {
                    "attributes" : {
                        "POSITION" : 21,
                        "NORMAL" : 22
                    },
                    "indices" : 23,
                    "material" : 7
                },
                {
                    "attributes" : {
                        "POSITION" : 24,
                        "NORMAL" : 25
                    },
                    "indices" : 26,
                    "material" : 8
                }
            ]
        },
        {
            "name" : "Cylinder.004",
            "primitives" : [
                {
                    "attributes" : {
                        "POSITION" : 27,
                        "NORMAL" : 28
                    },
                    "indices" : 17,
                    "material" : 9
                },
                {
                    "attributes" : {
                        "POSITION" : 29,
                        "NORMAL" : 30
                    },
                    "indices" : 20,
                    "material" : 10
                }
            ]
        },
        {
            "name" : "Cylinder.001",
            "primitives" : [
                {
                    "attributes" : {
                        "POSITION" : 31,
                        "NORMAL" : 32
                    },
                    "indices" : 23,
                    "material" : 11
                },
                {
                    "attributes" : {
                        "POSITION" : 33,
                        "NORMAL" : 34
                    },
                    "indices" : 26,
                    "material" : 12
                }
            ]
        }
    ],
    "accessors" : [
        {
            "bufferView" : 0,
            "componentType" : 5126,
            "count" : 3828,
            "max" : [
                1.0000004768371582,
                1,
                1.0000005960464478
            ],
            "min" : [
                -1.0000003576278687,
                -3.940105676651001,
                -1.000000238418579
            ],
            "type" : "VEC3"
        },
        {
            "bufferView" : 1,
            "componentType" : 5126,
            "count" : 3828,
            "type" : "VEC3"
        },
        {
            "bufferView" : 2,
            "componentType" : 5123,
            "count" : 6504,
            "type" : "SCALAR"
        },
        {
            "bufferView" : 3,
            "componentType" : 5126,
            "count" : 88,
            "max" : [
                0.47673460841178894,
                -1.1943633556365967,
                0.8251322507858276
            ],
            "min" : [
                -0.4712817072868347,
                -3.6702165603637695,
                -0.7901260852813721
            ],
            "type" : "VEC3"
        },
        {
            "bufferView" : 4,
            "componentType" : 5126,
            "count" : 88,
            "type" : "VEC3"
        },
        {
            "bufferView" : 5,
            "componentType" : 5123,
            "count" : 132,
            "type" : "SCALAR"
        },
        {
            "bufferView" : 6,
            "componentType" : 5126,
            "count" : 16,
            "max" : [
                1.000000238418579,
                1.8061321327422775e-07,
                0.9999997615814209
            ],
            "min" : [
                -0.9790297746658325,
                -0.5,
                -1.000000238418579
            ],
            "type" : "VEC3"
        },
        {
            "bufferView" : 7,
            "componentType" : 5126,
            "count" : 16,
            "type" : "VEC3"
        },
        {
            "bufferView" : 8,
            "componentType" : 5123,
            "count" : 24,
            "type" : "SCALAR"
        },
        {
            "bufferView" : 9,
            "componentType" : 5126,
            "count" : 24,
            "max" : [
                0.9553219079971313,
                1,
                0.8659234046936035
            ],
            "min" : [
                -0.9790297746658325,
                -0.4999998211860657,
                -0.886528730392456
            ],
            "type" : "VEC3"
        },
        {
            "bufferView" : 10,
            "componentType" : 5126,
            "count" : 24,
            "type" : "VEC3"
        },
        {
            "bufferView" : 11,
            "componentType" : 5123,
            "count" : 36,
            "type" : "SCALAR"
        },
        {
            "bufferView" : 12,
            "componentType" : 5126,
            "count" : 8,
            "max" : [
                -0.9999998211860657,
                0,
                0.4534881114959717
            ],
            "min" : [
                -1.0000001192092896,
                -0.5,
                -0.4469503164291382
            ],
            "type" : "VEC3"
        },
        {
            "bufferView" : 13,
            "componentType" : 5126,
            "count" : 8,
            "type" : "VEC3"
        },
        {
            "bufferView" : 14,
            "componentType" : 5123,
            "count" : 12,
            "type" : "SCALAR"
        },
        {
            "bufferView" : 15,
            "componentType" : 5126,
            "count" : 672,
            "max" : [
                1.582165241241455,
                0.898299515247345,
                1.5821657180786133
            ],
            "min" : [
                -1.5821654796600342,
                -1.4522874355316162,
                -1.5821654796600342
            ],
            "type" : "VEC3"
        },
        {
            "bufferView" : 16,
            "componentType" : 5126,
            "count" : 672,
            "type" : "VEC3"
        },
        {
            "bufferView" : 17,
            "componentType" : 5123,
            "count" : 1050,
            "type" : "SCALAR"
        },
        {
            "bufferView" : 18,
            "componentType" : 5126,
            "count" : 32,
            "max" : [
                1,
                0.11513108015060425,
                1.000000238418579
            ],
            "min" : [
                -1,
                0.11513108015060425,
                -0.9999997615814209
            ],
            "type" : "VEC3"
        },
        {
            "bufferView" : 19,
            "componentType" : 5126,
            "count" : 32,
            "type" : "VEC3"
        },
        {
            "bufferView" : 20,
            "componentType" : 5123,
            "count" : 90,
            "type" : "SCALAR"
        },
        {
            "bufferView" : 21,
            "componentType" : 5126,
            "count" : 672,
            "max" : [
                1.582165241241455,
                1,
                1.5821657180786133
            ],
            "min" : [
                -1.5821654796600342,
                -1.4522874355316162,
                -1.5821654796600342
            ],
            "type" : "VEC3"
        },
        {
            "bufferView" : 22,
            "componentType" : 5126,
            "count" : 672,
            "type" : "VEC3"
        },
        {
            "bufferView" : 23,
            "componentType" : 5123,
            "count" : 1050,
            "type" : "SCALAR"
        },
        {
            "bufferView" : 24,
            "componentType" : 5126,
            "count" : 32,
            "max" : [
                1,
                -1,
                1
            ],
            "min" : [
                -1,
                -1,
                -1
            ],
            "type" : "VEC3"
        },
        {
            "bufferView" : 25,
            "componentType" : 5126,
            "count" : 32,
            "type" : "VEC3"
        },
        {
            "bufferView" : 26,
            "componentType" : 5123,
            "count" : 90,
            "type" : "SCALAR"
        },
        {
            "bufferView" : 27,
            "componentType" : 5126,
            "count" : 672,
            "max" : [
                1.582165241241455,
                0.898299515247345,
                1.5821657180786133
            ],
            "min" : [
                -1.5821654796600342,
                -1.4522874355316162,
                -1.5821654796600342
            ],
            "type" : "VEC3"
        },
        {
            "bufferView" : 28,
            "componentType" : 5126,
            "count" : 672,
            "type" : "VEC3"
        },
        {
            "bufferView" : 29,
            "componentType" : 5126,
            "count" : 32,
            "max" : [
                1,
                0.13855195045471191,
                1.000000238418579
            ],
            "min" : [
                -1,
                0.13855195045471191,
                -0.9999997615814209
            ],
            "type" : "VEC3"
        },
        {
            "bufferView" : 30,
            "componentType" : 5126,
            "count" : 32,
            "type" : "VEC3"
        },
        {
            "bufferView" : 31,
            "componentType" : 5126,
            "count" : 672,
            "max" : [
                1.582165241241455,
                1,
                1.5821657180786133
            ],
            "min" : [
                -1.5821654796600342,
                -1.4522874355316162,
                -1.5821654796600342
            ],
            "type" : "VEC3"
        },
        {
            "bufferView" : 32,
            "componentType" : 5126,
            "count" : 672,
            "type" : "VEC3"
        },
        {
            "bufferView" : 33,
            "componentType" : 5126,
            "count" : 32,
            "max" : [
                1,
                -1,
                1
            ],
            "min" : [
                -1,
                -1,
                -1
            ],
            "type" : "VEC3"
        },
        {
            "bufferView" : 34,
            "componentType" : 5126,
            "count" : 32,
            "type" : "VEC3"
        }
    ],
    "bufferViews" : [
        {
            "buffer" : 0,
            "byteLength" : 45936,
            "byteOffset" : 0
        },
        {
            "buffer" : 0,
            "byteLength" : 45936,
            "byteOffset" : 45936
        },
        {
            "buffer" : 0,
            "byteLength" : 13008,
            "byteOffset" : 91872
        },
        {
            "buffer" : 0,
            "byteLength" : 1056,
            "byteOffset" : 104880
        },
        {
            "buffer" : 0,
            "byteLength" : 1056,
            "byteOffset" : 105936
        },
        {
            "buffer" : 0,
            "byteLength" : 264,
            "byteOffset" : 106992
        },
        {
            "buffer" : 0,
            "byteLength" : 192,
            "byteOffset" : 107256
        },
        {
            "buffer" : 0,
            "byteLength" : 192,
            "byteOffset" : 107448
        },
        {
            "buffer" : 0,
            "byteLength" : 48,
            "byteOffset" : 107640
        },
        {
            "buffer" : 0,
            "byteLength" : 288,
            "byteOffset" : 107688
        },
        {
            "buffer" : 0,
            "byteLength" : 288,
            "byteOffset" : 107976
        },
        {
            "buffer" : 0,
            "byteLength" : 72,
            "byteOffset" : 108264
        },
        {
            "buffer" : 0,
            "byteLength" : 96,
            "byteOffset" : 108336
        },
        {
            "buffer" : 0,
            "byteLength" : 96,
            "byteOffset" : 108432
        },
        {
            "buffer" : 0,
            "byteLength" : 24,
            "byteOffset" : 108528
        },
        {
            "buffer" : 0,
            "byteLength" : 8064,
            "byteOffset" : 108552
        },
        {
            "buffer" : 0,
            "byteLength" : 8064,
            "byteOffset" : 116616
        },
        {
            "buffer" : 0,
            "byteLength" : 2100,
            "byteOffset" : 124680
        },
        {
            "buffer" : 0,
            "byteLength" : 384,
            "byteOffset" : 126780
        },
        {
            "buffer" : 0,
            "byteLength" : 384,
            "byteOffset" : 127164
        },
        {
            "buffer" : 0,
            "byteLength" : 180,
            "byteOffset" : 127548
        },
        {
            "buffer" : 0,
            "byteLength" : 8064,
            "byteOffset" : 127728
        },
        {
            "buffer" : 0,
            "byteLength" : 8064,
            "byteOffset" : 135792
        },
        {
            "buffer" : 0,
            "byteLength" : 2100,
            "byteOffset" : 143856
        },
        {
            "buffer" : 0,
            "byteLength" : 384,
            "byteOffset" : 145956
        },
        {
            "buffer" : 0,
            "byteLength" : 384,
            "byteOffset" : 146340
        },
        {
            "buffer" : 0,
            "byteLength" : 180,
            "byteOffset" : 146724
        },
        {
            "buffer" : 0,
            "byteLength" : 8064,
            "byteOffset" : 146904
        },
        {
            "buffer" : 0,
            "byteLength" : 8064,
            "byteOffset" : 154968
        },
        {
            "buffer" : 0,
            "byteLength" : 384,
            "byteOffset" : 163032
        },
        {
            "buffer" : 0,
            "byteLength" : 384,
            "byteOffset" : 163416
        },
        {
            "buffer" : 0,
            "byteLength" : 8064,
            "byteOffset" : 163800
        },
        {
            "buffer" : 0,
            "byteLength" : 8064,
            "byteOffset" : 171864
        },
        {
            "buffer" : 0,
            "byteLength" : 384,
            "byteOffset" : 179928
        },
        {
            "buffer" : 0,
            "byteLength" : 384,
            "byteOffset" : 180312
        }
    ],
    "buffers" : [
        {
            "byteLength" : 180696,
            "uri" : "data:application/octet-stream;base64,"
        }
    ]
}
